<?xml version="1.0" encoding="UTF-8"?>
<!DOCTYPE svg PUBLIC "-//W3C//DTD SVG 1.1//EN" "http://www.w3.org/Graphics/SVG/1.1/DTD/svg11.dtd">
<!-- Creator: CorelDRAW 2019 (64-Bit) -->
<svg xmlns="http://www.w3.org/2000/svg" xml:space="preserve" width="250mm" height="250mm" version="1.1" style="shape-rendering:geometricPrecision; text-rendering:geometricPrecision; image-rendering:optimizeQuality; fill-rule:evenodd; clip-rule:evenodd"
viewBox="0 0 25000 25000"
 xmlns:xlink="http://www.w3.org/1999/xlink">
 <defs>
  <style type="text/css">
   <![CDATA[
    .fil1 {fill:#223468}
    .fil0 {fill:#FCB717}
   ]]>
  </style>
 </defs>
 <g id="Layer_x0020_1">
  <metadata id="CorelCorpID_0Corel-Layer"/>
  <rect class="fil0" x="-5.27" y="5.27" width="25000" height="25000"/>
  <path class="fil1" d="M-5.27 16098.87l0 8906.4 1234.81 -1.27c0.3,-470.09 72.67,-878.56 151.02,-1358.94 536.59,-3422.02 4807.04,-5863.69 8703.93,-4208.85 1802.7,765.53 3139.71,2432.12 3420.41,4221.76 79.37,506.02 31.26,859.25 45.12,1347.3l11444.71 0 0 -8274.18 -1376.08 1.42c-69,644.09 -12.16,1000.67 -277.01,1995.14 -612.37,1605.96 -2146.54,2806.04 -4123.41,2974.36 -2884.37,245.59 -5150.72,-1734.96 -5313.67,-4063.29 -63.74,-910.75 -11.8,-3334.53 -11.8,-4409.27l0 -13224.18 -10114.13 0 1.74 1682.09c1458.18,58.7 2499.44,259.38 3617.57,786.31 4446.11,2095.28 5699.69,7125.95 2813.75,10676.01 -1313.62,1615.93 -3378.29,2740.22 -5723.48,2919.5 -860.9,65.82 -3463.28,29.69 -4493.48,29.69z"/>
 </g>
</svg>
