<?xml version="1.0" encoding="UTF-8"?>
<!DOCTYPE svg PUBLIC "-//W3C//DTD SVG 1.1//EN" "http://www.w3.org/Graphics/SVG/1.1/DTD/svg11.dtd">
<!-- Creator: CorelDRAW 2019 (64-Bit) -->
<svg xmlns="http://www.w3.org/2000/svg" xml:space="preserve" width="900mm" height="900mm" version="1.1" style="shape-rendering:geometricPrecision; text-rendering:geometricPrecision; image-rendering:optimizeQuality; fill-rule:evenodd; clip-rule:evenodd"
viewBox="0 0 90000 90000"
 xmlns:xlink="http://www.w3.org/1999/xlink">
 <defs>
  <style type="text/css">
   <![CDATA[
    .str2 {stroke:#D40000;stroke-width:3527.78;stroke-miterlimit:10}
    .str1 {stroke:#00A700;stroke-width:1411.11;stroke-miterlimit:10}
    .str0 {stroke:#00A700;stroke-width:1481.67;stroke-miterlimit:10}
    .fil2 {fill:none;fill-rule:nonzero}
    .fil4 {fill:#00A700}
    .fil3 {fill:#0076FF;fill-rule:nonzero}
    .fil0 {fill:#C58F00;fill-rule:nonzero}
    .fil1 {fill:#FFE000;fill-rule:nonzero}
   ]]>
  </style>
 </defs>
 <g id="Layer_x0020_1">
  <metadata id="CorelCorpID_0Corel-Layer"/>
  <path class="fil0" d="M86596.79 49791.08c752.37,-6561.75 2716.74,-14711.97 543.34,-19685.65 -2173.4,-4973.74 -8693.56,-10741.53 -10699.73,-12580.41 -2006.12,-1839.09 -5391.73,-5976.87 -6143.89,-8233.81 0,0 -1716.93,21.33 -4378.17,-856.68 -8233.6,-2716.79 -13614.95,-7878.68 -20918.68,-7878.68 -7303.73,0 -12684.98,5161.89 -20918.74,7878.68 -2661.23,878.01 -4378.11,856.68 -4378.11,856.68 -752.26,2256.94 -4137.78,6394.72 -6143.9,8233.81 -2006.17,1838.88 -8526.32,7606.67 -10699.72,12580.41 -2173.41,4973.68 -208.93,13123.9 543.33,19685.65 752.37,6562.1 -208.92,8150.22 -208.92,8150.22 0,0 2152.48,1065.75 6917.13,10469.77 4764.71,9403.98 6426.13,14043.35 18839.46,16331.65 12413.28,2288.3 13792.53,3197.36 16049.47,4702.09 2256.94,-1504.73 3636.18,-2413.79 16049.46,-4702.09 12413.34,-2288.3 14074.76,-6927.67 18839.46,-16331.65 4764.66,-9404.02 6917.24,-10469.77 6917.24,-10469.77 0,0 -961.39,-1588.12 -209.03,-8150.22z"/>
  <path class="fil1" d="M44999.66 87532.62c0,0 -2539.07,-2758.54 -11253.45,-4764.66 -8714.43,-2006.32 -10595.22,-2633.2 -12852.16,-4200.55 -2256.94,-1567.29 -5329.02,-5579.73 -8024.78,-11410.14 -2695.77,-5830.56 -6520.11,-8714.38 -7836.68,-9654.8 0,0 1943.45,-3949.72 877.65,-12726.82 -1065.7,-8776.94 -1441.91,-13165.49 2319.71,-17366.04 3761.67,-4200.5 10783.21,-10845.99 12538.72,-16425.57 0,0 5015.52,-188.26 11472.86,-3072.08 6457.49,-2883.81 9090.59,-4137.77 12758.13,-4137.77 3667.54,0 6300.59,1253.96 12758.03,4137.77 6457.43,2883.82 11472.91,3072.08 11472.91,3072.08 1755.55,5579.58 8777.1,12225.07 12538.77,16425.57 3761.72,4200.55 3385.41,8589.1 2319.71,17366.04 -1065.91,8777.1 877.65,12726.82 877.65,12726.82 -1316.47,940.42 -5140.91,3824.24 -7836.68,9654.8 -2695.77,5830.41 -5767.84,9842.85 -8024.78,11410.14 -2256.95,1567.35 -4137.73,2194.23 -12852.16,4200.55 -8714.38,2006.12 -11253.45,4764.66 -11253.45,4764.66z"/>
  <path class="fil2 str0" d="M44968.3 19949.19c0,0 -3824.24,3698.75 -3824.24,9153.25 0,5454.31 2883.82,8902.44 5893.08,10783.27 3009.3,1880.63 8087.5,4388.4 12852.15,1880.63 4764.71,-2507.71 7335.14,-7209.59 7335.14,-7209.59 -3698.9,-1755.4 -14493.48,-3555.51 -18919.42,9428.68 -3838.2,11260.1 -3336.71,17090.51 -3336.71,17090.51"/>
  <path class="fil2 str1" d="M48510.51 61075.94c0,0 -31.36,-2789.9 1222.39,-5924.54 1253.96,-3134.59 6833.75,-9115.81 18400.59,-9667.23 0,0 -1285.17,5404.17 -6739.42,8977.64 -5454.5,3573.41 -11441.7,3542.26 -16394.41,3542.26"/>
  <path class="fil2 str1" d="M44968.3 19949.19c0,0 3824.39,3698.75 3824.39,9153.25 0,5454.31 -2884.02,8902.44 -5893.28,10783.27 -3009.2,1880.63 -8087.4,4388.4 -12852.16,1880.63 -4764.65,-2507.71 -7335.13,-7209.59 -7335.13,-7209.59 3698.95,-1755.4 14493.58,-3555.51 18919.52,9428.68 3838.2,11260.1 3336.66,17090.51 3336.66,17090.51"/>
  <path class="fil2 str1" d="M41426.14 61075.94c0,0 31.36,-2789.9 -1222.5,-5924.54 -1253.85,-3134.59 -6833.64,-9115.81 -18400.58,-9667.23 0,0 1285.27,5404.17 6739.57,8977.64 5454.35,3573.41 11441.6,3542.26 16394.41,3542.26"/>
  <path class="fil3" d="M56169.42 64168.94c-3218.18,0 -6728.88,3092.84 -11169.76,3092.84 -4440.78,0 -7951.58,-3092.84 -11169.91,-3092.84 -1964.38,0 -2591.31,501.59 -2591.31,501.59 0,0 1212.06,-292.57 4095.93,1379.24 2883.93,1671.66 6499.34,4806.45 9665.29,4806.45 3165.95,0 6781.36,-3134.79 9665.18,-4806.45 2883.82,-1671.81 4096.03,-1379.24 4096.03,-1379.24 0,0 -626.92,-501.59 -2591.45,-501.59z"/>
  <path class="fil2 str2" d="M76064.3 45089.19c0,17069.89 -13838.06,30907.79 -30908,30907.79 -17069.79,0 -30907.74,-13837.9 -30907.74,-30907.79 0,-17069.94 13837.95,-30907.84 30907.74,-30907.84 17069.94,0 30908,13837.9 30908,30907.84z"/>
  <path class="fil4" d="M44425.52 19444.65l29.68 666.47 -21.18 12.69 246.47 129.68c179.77,-199.77 287.81,-304.28 287.81,-304.28 0,0 117.15,113.26 310.37,329.4l221.25 -450.85 2.25 -339.94 -537.14 -563.75 -539.51 520.58z"/>
 </g>
</svg>
